<svg xmlns="http://www.w3.org/2000/svg" xmlns:xlink="http://www.w3.org/1999/xlink" width="144.38" height="60" viewBox="0 0 144.38 60"><defs><clipPath id="a"><rect width="144.38" height="60"/></clipPath></defs><g transform="translate(-555.811 -628)"><g transform="translate(555.811 628)"><g clip-path="url(#a)"><path d="M346.126,242a3.854,3.854,0,0,1,.791-1.044,3.591,3.591,0,0,1,1.1-.7,3.466,3.466,0,0,1,1.33-.253,3,3,0,0,1,1.265.253,2.388,2.388,0,0,1,.9.7A2.613,2.613,0,0,1,352,242a3.618,3.618,0,0,1,.045,1.284,4.393,4.393,0,0,1-.415,1.362,3.821,3.821,0,0,1-.791,1.077,3.6,3.6,0,0,1-1.1.713,3.436,3.436,0,0,1-1.336.259,2.893,2.893,0,0,1-1.258-.259,2.428,2.428,0,0,1-.9-.713,2.669,2.669,0,0,1-.486-1.077,4.155,4.155,0,0,1,.37-2.646m-2.043,3.347a3.74,3.74,0,0,0,.791,1.511,3.644,3.644,0,0,0,1.394.973,5.016,5.016,0,0,0,1.907.344,5.9,5.9,0,0,0,2.024-.37,5.584,5.584,0,0,0,1.686-.993,5.356,5.356,0,0,0,1.219-1.518,5.8,5.8,0,0,0,.636-1.959,5.069,5.069,0,0,0-.078-2,3.7,3.7,0,0,0-.791-1.531,3.556,3.556,0,0,0-1.408-.967,5.115,5.115,0,0,0-1.926-.318,5.8,5.8,0,0,0-2,.344,5.318,5.318,0,0,0-1.673.979,5.413,5.413,0,0,0-1.219,1.537,5.925,5.925,0,0,0-.642,2,4.8,4.8,0,0,0,.084,1.959m-7.932,2.594h1.634l.532-3.814h4.047l.207-1.479h-4.047l.337-2.413h4.294l.207-1.479h-5.928Zm-10.585,0H327.2l.986-7.044h.026l3.554,7.044h2.076l1.284-9.184h-1.634l-.96,6.823h-.026l-3.49-6.823H326.85Zm-3.9,0H323.3l1.284-9.184h-1.634Zm-6.953,0h5.539l.207-1.479h-3.9l1.077-7.706h-1.635Zm-6.953-3.5,1.972-3.736.882,3.736Zm-3.7,3.5h1.829l1.116-2.1h3.982l.571,2.1h1.868l-2.672-9.184h-1.414Zm-7.238-1.479.869-6.227h1.492a4.853,4.853,0,0,1,1.356.175,2.533,2.533,0,0,1,1.012.545,2.046,2.046,0,0,1,.584.966,3.406,3.406,0,0,1,.058,1.427,3.537,3.537,0,0,1-.493,1.433,3.2,3.2,0,0,1-.934.96,4.021,4.021,0,0,1-1.258.545,6.025,6.025,0,0,1-1.466.175Zm-1.842,1.479H298.4a5.856,5.856,0,0,0,1.732-.279,5.733,5.733,0,0,0,1.68-.843,5.463,5.463,0,0,0,1.349-1.427,4.911,4.911,0,0,0,.739-2.043,4.573,4.573,0,0,0-.1-2.03,3.394,3.394,0,0,0-2.205-2.283,5.2,5.2,0,0,0-1.713-.279h-3.619Zm-6.953-3.5L290,240.7l.882,3.736Zm-3.7,3.5h1.829l1.116-2.1h3.983l.571,2.1h1.868l-2.672-9.184h-1.414Zm.039-9.184h-1.634l-.8,5.76a3.015,3.015,0,0,1-.208.707,2.43,2.43,0,0,1-.434.681,2.177,2.177,0,0,1-.707.513,2.357,2.357,0,0,1-1.012.2,1.984,1.984,0,0,1-.953-.2,1.48,1.48,0,0,1-.564-.513,1.717,1.717,0,0,1-.246-.681,2.4,2.4,0,0,1,0-.707l.8-5.76h-1.635l-.817,5.812a3.629,3.629,0,0,0,.071,1.5,2.752,2.752,0,0,0,.616,1.135,2.836,2.836,0,0,0,1.07.72,3.88,3.88,0,0,0,1.433.253,4.415,4.415,0,0,0,1.5-.253,4.194,4.194,0,0,0,1.271-.72,4.012,4.012,0,0,0,.94-1.135,4.22,4.22,0,0,0,.493-1.5Zm-10.079,3.814h-3.516l-.207,1.479h1.881l-.311,2.166a3.685,3.685,0,0,1-1.025.363,5.941,5.941,0,0,1-1.193.117,2.892,2.892,0,0,1-1.258-.259,2.425,2.425,0,0,1-.9-.713,2.666,2.666,0,0,1-.487-1.077,3.964,3.964,0,0,1,1.161-3.691,3.591,3.591,0,0,1,1.1-.7,3.466,3.466,0,0,1,1.33-.253,3.526,3.526,0,0,1,1.3.233,2.464,2.464,0,0,1,.973.662l1.375-1.219a3.4,3.4,0,0,0-1.518-.9,6.993,6.993,0,0,0-1.933-.253,5.8,5.8,0,0,0-2,.344,5.317,5.317,0,0,0-1.673.979,5.411,5.411,0,0,0-1.219,1.537,5.924,5.924,0,0,0-.642,2,4.8,4.8,0,0,0,.084,1.959,3.743,3.743,0,0,0,.791,1.511,3.644,3.644,0,0,0,1.394.973,5.016,5.016,0,0,0,1.907.344,8.77,8.77,0,0,0,3.931-.908Z" transform="translate(-209.423 -188.177)"/><path d="M22.213,62.042,17.346,79.61,16.114,89.682h-.336L14.548,79.61,9.288,62.042H0l11.078,30.55h9.232L31.5,62.042Z" transform="translate(0 -48.946)"/><path d="M190.975,82.3V62.043h-8.728V82.017l.056,2.238c-2.126,1.623-4.2,3.021-6.714,3.021-3.245,0-4.252-2.126-4.252-6.658V62.043h-8.785V81.458c0,8.952,3.973,12.085,9.009,12.085,6.21,0,8.392-4.755,10.63-8.784h.112a36.538,36.538,0,0,0,.9,7.833h8.336a63.544,63.544,0,0,1-.559-10.295" transform="translate(-128.24 -48.947)"/><path d="M321.276,73.184l5.259,2.578h18.072v-4.14c0-8.449-5.987-13.82-14.939-13.82-10.127,0-16.282,6.434-16.282,16.17,0,10.239,5.931,16.394,15.722,16.338,7.61-.056,11.75-2.573,14.772-6.546l-6.714-3.134c-1.79,2.238-3.917,3.245-7.721,3.3-4.979.056-8.169-3.749-8.169-10.295v-.452Zm8.169-9.117c6.323,0,7.162,4.924,7.162,7.554H321.388c.5-3.749,2.462-7.554,8.057-7.554" transform="translate(-247.237 -45.6)"/><path d="M479.488,0V40.288l6.938,3.358h1.791V0Z" transform="translate(-378.277 0)"/><path d="M564.555,79.077l.056-10.127c.056-6.938-4.812-11.414-14.772-11.414-6.826,0-12.253,2.909-14.715,6.6l6.77,3.133c2.07-2.406,4.308-3.413,8.112-3.413,5.26,0,6.491,3.693,6.491,5.707v.784a6.519,6.519,0,0,1-2.406.895c-3.749.616-7.5.448-11.19,1.343-3.581.839-8.392,3.245-8.392,9.009,0,4.084,2.741,8.5,10.127,8.5,4.7,0,9.176-2.742,11.862-6.1a24.8,24.8,0,0,0,.616,5.036H565.9c-.9-1.791-1.343-6.826-1.343-9.959m-16.394,5.2a4.053,4.053,0,0,1-4.364-4.308c0-2.574,2.126-4.532,5.987-4.7a64.629,64.629,0,0,0,6.714-.895l-.056,6.6a13.8,13.8,0,0,1-8.281,3.3" transform="translate(-421.684 -45.391)"/></g></g></g></svg>